<?xml version="1.0" encoding="UTF-8"?>
<svg width="673px" height="101px" viewBox="0 0 673 101" version="1.1" xmlns="http://www.w3.org/2000/svg" xmlns:xlink="http://www.w3.org/1999/xlink">
    <title>logo</title>
    <g id="Page-1" stroke="none" stroke-width="1" fill="none" fill-rule="evenodd">
        <g id="logo" fill="#FFFFFF" fill-rule="nonzero">
            <g id="noun_covid-19_3247096">
                <path d="M97.84375,39.9791667 C97.0066211,39.9790383 96.203742,40.3115296 95.6118024,40.9034691 C95.0198629,41.4954086 94.6873716,42.2982878 94.6875,43.1354167 L94.6875,46.2916667 L86.002026,46.2916667 C85.2336483,39.7474391 82.6621109,33.5453934 78.5743177,28.377486 L84.7210304,22.2303946 L87.1951517,24.325324 C87.9921162,25.124176 89.154944,25.4367612 90.2450339,25.1451772 C91.3351237,24.8535931 92.1866054,24.0022078 92.4783127,22.912151 C92.7700201,21.8220941 92.4575665,20.659231 91.6588046,19.862176 L81.1381606,9.34134271 C80.340896,8.54401422 79.1788235,8.23258791 78.0896845,8.52437506 C77.0005455,8.8161622 76.1498061,9.66683339 75.8579317,10.755949 C75.5660572,11.8450646 75.8773904,13.0071621 76.674655,13.8044906 L78.7696685,16.2785277 L72.6225771,22.4255981 C67.4544846,18.3381576 61.2524781,15.7668057 54.7083333,14.9983527 L54.7083333,6.3125 L57.8645833,6.3125 C59.6077321,6.3125 61.0208333,4.89939874 61.0208333,3.15625 C61.0208333,1.41310126 59.6077321,0 57.8645833,0 L43.1354167,0 C41.3922679,0 39.9791667,1.41310126 39.9791667,3.15625 C39.9791667,4.89939874 41.3922679,6.3125 43.1354167,6.3125 L46.2916667,6.3125 L46.2916667,14.9983527 C39.747544,15.7668171 33.5455608,18.3381683 28.377486,22.4255981 L22.2303946,16.2785277 L24.3254081,13.8044906 C25.1226727,13.0071621 25.4340059,11.8450646 25.1421315,10.755949 C24.850257,9.66683339 23.9995177,8.8161622 22.9103786,8.52437506 C21.8212396,8.23258791 20.6591671,8.54401422 19.8619025,9.34134271 L9.58357437,19.862176 C8.35625093,21.095652 8.35879784,23.0897768 9.5892681,24.3201136 C10.8197384,25.5504504 12.8138634,25.5527811 14.0472062,24.325324 L16.2790327,22.2303946 L22.4257454,28.377486 C18.3379296,33.5453863 15.76637,39.7474326 14.997974,46.2916667 L6.3125,46.2916667 L6.3125,43.1354167 C6.3125,41.3922679 4.89939874,39.9791667 3.15625,39.9791667 C1.41310126,39.9791667 0,41.3922679 0,43.1354167 L0,57.8645833 C0,59.6077321 1.41310126,61.0208333 3.15625,61.0208333 C4.89939874,61.0208333 6.3125,59.6077321 6.3125,57.8645833 L6.3125,54.7083333 L14.997974,54.7083333 C15.7663517,61.2525609 18.3378891,67.4546066 22.4256823,72.622514 L16.2790327,78.7696054 L13.8049115,76.674676 C12.5720415,75.4444407 10.5756459,75.4454519 9.34402284,76.6769356 C8.11239981,77.9084193 8.11116269,79.9048148 9.34125854,81.137824 L19.8619025,91.6586573 C20.6591671,92.4559858 21.8212396,92.7674122 22.9103787,92.475625 C23.9995177,92.1838379 24.8502571,91.3331667 25.1421315,90.244051 C25.434006,89.1549354 25.1226728,87.9928379 24.3254081,87.1955094 L22.2303946,84.7214723 L28.3772335,78.5744019 C33.5453765,82.6618794 39.7474543,85.2332337 46.2916667,86.0016473 L46.2916667,94.6875 L43.1354167,94.6875 C41.3922679,94.6875 39.9791667,96.1006013 39.9791667,97.84375 C39.9791667,99.5868987 41.3922679,101 43.1354167,101 L57.8645833,101 C59.6077321,101 61.0208333,99.5868987 61.0208333,97.84375 C61.0208333,96.1006013 59.6077321,94.6875 57.8645833,94.6875 L54.7083333,94.6875 L54.7083333,86.0016473 C61.2525457,85.2332337 67.4546235,82.6618794 72.6227665,78.5744019 L78.7696054,84.7214723 L76.6745919,87.1955094 C75.4421276,88.4280724 75.4422077,90.4263719 76.6747707,91.6588361 C77.9073338,92.8913004 79.9056332,92.8912203 81.1380975,91.6586573 L91.6587415,81.137824 C92.4575033,80.340769 92.769957,79.1779059 92.4782496,78.087849 C92.1865422,76.9977922 91.3350606,76.1464069 90.2449707,75.8548228 C89.1548809,75.5632388 87.9920531,75.875824 87.1950885,76.674676 L84.7209673,78.7696054 L78.5742546,72.622514 C82.6620704,67.4546137 85.23363,61.2525674 86.002026,54.7083333 L94.6875,54.7083333 L94.6875,57.8645833 C94.6875,59.6077321 96.1006013,61.0208333 97.84375,61.0208333 C99.5868987,61.0208333 101,59.6077321 101,57.8645833 L101,43.1354167 C101,42.2982878 100.667637,41.4954086 100.075698,40.9034691 C99.483758,40.3115296 98.6808789,39.9790383 97.84375,39.9791667 Z M38.9270833,42.0833333 C35.9483874,42.0833333 33.2629931,40.2890102 32.1230955,37.537054 C30.983198,34.7850978 31.6132804,31.6174593 33.7195365,29.5112032 C35.8257926,27.4049471 38.9934312,26.7748646 41.7453874,27.9147622 C44.4973435,29.0546598 46.2916667,31.7400541 46.2916667,34.71875 C46.2916667,36.6719692 45.5158017,38.5451992 44.1346671,39.9263338 C42.7535326,41.3074683 40.8803025,42.0833333 38.9270833,42.0833333 Z M63.125,69.4375 C60.8008017,69.4375 58.9166667,67.553365 58.9166667,65.2291667 C58.9166667,62.9049683 60.8008017,61.0208333 63.125,61.0208333 C65.4491983,61.0208333 67.3333333,62.9049683 67.3333333,65.2291667 C67.3333333,67.5533361 65.4491694,69.4375 63.125,69.4375 Z" id="Shape"></path>
            </g>
            <path d="M148.821738,83.8448459 C153.836664,83.8448459 158.112029,83.0371945 161.647833,81.4218916 C165.183638,79.8065887 168.191185,77.5536663 170.670474,74.6631243 L170.670474,74.6631243 L167.416407,71.1349628 C167.078322,70.7665604 166.68389,70.5823592 166.23311,70.5823592 C165.754156,70.5823592 165.275203,70.794899 164.796249,71.2199787 C163.753821,72.1834927 162.704349,73.0123982 161.647833,73.706695 C160.591318,74.4009919 159.450282,74.9748495 158.224724,75.4282678 C156.999166,75.8816861 155.660913,76.2146652 154.209966,76.4272051 C152.759018,76.639745 151.131984,76.7460149 149.328865,76.7460149 C146.370622,76.7460149 143.616639,76.2075806 141.066915,75.130712 C138.517192,74.0538434 136.305553,72.4881332 134.431999,70.4335813 C132.558445,68.3790294 131.079324,65.8639745 129.994635,62.8884166 C128.909946,59.9128587 128.367601,56.5263904 128.367601,52.7290117 C128.367601,48.9883103 128.888815,45.6301807 129.931244,42.6546227 C130.973672,39.6790648 132.431663,37.1569253 134.305217,35.088204 C136.178771,33.0194828 138.41154,31.4396033 141.003524,30.3485654 C143.595509,29.2575275 146.455143,28.7120085 149.582429,28.7120085 C152.174413,28.7120085 154.357878,28.9883103 156.132824,29.5409139 C157.907769,30.0935175 159.386891,30.7098831 160.570188,31.3900106 C161.753485,32.0701382 162.711392,32.6865037 163.443909,33.2391073 C164.176427,33.7917109 164.796249,34.0680128 165.303376,34.0680128 C165.754156,34.0680128 166.113372,33.9759122 166.381022,33.7917109 C166.648673,33.6075097 166.867019,33.3737159 167.036062,33.0903294 L167.036062,33.0903294 L169.740741,29.3071201 C167.233278,26.9266738 164.331382,25.0421537 161.035055,23.65356 C157.738727,22.2649663 153.935272,21.5706695 149.624689,21.5706695 C145.229586,21.5706695 141.214827,22.3287283 137.580415,23.8448459 C133.946002,25.3609635 130.82576,27.4934467 128.219689,30.2422954 C125.613618,32.9911442 123.592152,36.2784272 122.155291,40.1041445 C120.71843,43.9298618 120,48.1381509 120,52.7290117 C120,57.3198725 120.690257,61.5281615 122.07077,65.3538789 C123.451283,69.1795962 125.395272,72.4597945 127.902735,75.194474 C130.410198,77.9291534 133.438875,80.0545519 136.988766,81.5706695 C140.538658,83.0867871 144.482981,83.8448459 148.821738,83.8448459 Z M205.692092,83.8023379 C210.143543,83.8023379 214.207606,83.0442791 217.884279,81.5281615 C221.560952,80.0120439 224.709368,77.8795608 227.329526,75.130712 C229.949684,72.3818633 231.978193,69.1016649 233.415054,65.2901169 C234.851915,61.4785689 235.570345,57.2915338 235.570345,52.7290117 C235.570345,48.1664896 234.851915,43.9794545 233.415054,40.1679065 C231.978193,36.3563585 229.949684,33.0690755 227.329526,30.3060574 C224.709368,27.5430393 221.560952,25.3963868 217.884279,23.8660999 C214.207606,22.335813 210.143543,21.5706695 205.692092,21.5706695 C201.240641,21.5706695 197.183622,22.335813 193.521036,23.8660999 C189.85845,25.3963868 186.717077,27.5430393 184.096919,30.3060574 C181.476761,33.0690755 179.448252,36.3563585 178.011391,40.1679065 C176.57453,43.9794545 175.8561,48.1664896 175.8561,52.7290117 C175.8561,57.2915338 176.57453,61.4785689 178.011391,65.2901169 C179.448252,69.1016649 181.476761,72.3818633 184.096919,75.130712 C186.717077,77.8795608 189.85845,80.0120439 193.521036,81.5281615 C197.183622,83.0442791 201.240641,83.8023379 205.692092,83.8023379 Z M205.692092,76.6609989 C202.452112,76.6609989 199.507956,76.11548 196.859624,75.0244421 C194.211293,73.9334042 191.95035,72.3606093 190.076796,70.3060574 C188.203242,68.2515055 186.759338,65.7435352 185.745083,62.7821467 C184.730829,59.8207581 184.223701,56.4697131 184.223701,52.7290117 C184.223701,48.9883103 184.730829,45.6301807 185.745083,42.6546227 C186.759338,39.6790648 188.203242,37.1640099 190.076796,35.109458 C191.95035,33.0549061 194.211293,31.4750266 196.859624,30.3698193 C199.507956,29.2646121 202.452112,28.7120085 205.692092,28.7120085 C208.960246,28.7120085 211.918489,29.2646121 214.566821,30.3698193 C217.215153,31.4750266 219.469052,33.0549061 221.328519,35.109458 C223.187986,37.1640099 224.624847,39.6790648 225.639101,42.6546227 C226.653356,45.6301807 227.160483,48.9883103 227.160483,52.7290117 C227.160483,56.4697131 226.653356,59.8207581 225.639101,62.7821467 C224.624847,65.7435352 223.187986,68.2515055 221.328519,70.3060574 C219.469052,72.3606093 217.215153,73.9334042 214.566821,75.0244421 C211.918489,76.11548 208.960246,76.6609989 205.692092,76.6609989 Z M270.761006,83.1647184 L295.441203,22.250797 L288.890808,22.250797 C288.186465,22.250797 287.587773,22.4562522 287.094732,22.8671626 C286.601692,23.278073 286.27065,23.7244067 286.101608,24.2061637 L286.101608,24.2061637 L269.070581,67.1817216 C268.704323,68.1452356 268.366238,69.1937655 268.056327,70.3273114 C267.746415,71.4608572 267.450591,72.6510804 267.168854,73.8979809 C266.887116,72.6510804 266.570162,71.4608572 266.21799,70.3273114 C265.865818,69.1937655 265.506603,68.1452356 265.140344,67.1817216 L265.140344,67.1817216 L248.067057,24.2061637 C247.841667,23.6393907 247.503582,23.171803 247.052802,22.8034006 C246.602022,22.4349982 246.010374,22.250797 245.277856,22.250797 L245.277856,22.250797 L238.727462,22.250797 L263.407659,83.1647184 L270.761006,83.1647184 Z M312.248497,83.1647184 L312.248497,22.250797 L304.049939,22.250797 L304.049939,83.1647184 L312.248497,83.1647184 Z M350.946789,83.1647184 C355.39824,83.1647184 359.462302,82.4349982 363.138975,80.9755579 C366.815649,79.5161176 369.964064,77.454481 372.584222,74.7906482 C375.20438,72.1268154 377.23289,68.9245484 378.66975,65.183847 C380.106611,61.4431456 380.825042,57.2915338 380.825042,52.7290117 C380.825042,48.1664896 380.106611,44.0148778 378.66975,40.2741764 C377.23289,36.533475 375.20438,33.3241233 372.584222,30.6461211 C369.964064,27.968119 366.815649,25.8993978 363.138975,24.4399575 C359.462302,22.9805172 355.39824,22.250797 350.946789,22.250797 L350.946789,22.250797 L328.337361,22.250797 L328.337361,83.1647184 L350.946789,83.1647184 Z M350.946789,76.4909671 L336.53592,76.4909671 L336.53592,28.9245484 L350.946789,28.9245484 C354.214943,28.9245484 357.173186,29.4629826 359.821517,30.5398512 C362.469849,31.6167198 364.723748,33.1753454 366.583215,35.2157279 C368.442682,37.2561105 369.879543,39.7499114 370.893798,42.6971307 C371.908052,45.64435 372.41518,48.9883103 372.41518,52.7290117 C372.41518,56.4697131 371.908052,59.8136734 370.893798,62.7608927 C369.879543,65.7081119 368.442682,68.1948282 366.583215,70.2210414 C364.723748,72.2472547 362.469849,73.7987956 359.821517,74.8756642 C357.173186,75.9525328 354.214943,76.4909671 350.946789,76.4909671 L350.946789,76.4909671 Z M399.026936,98 L399.026936,18 L393.152711,18 L393.152711,98 L399.026936,98 Z M429.61119,83.8448459 C433.104734,83.8448459 436.224976,83.3134963 438.971915,82.250797 C441.718855,81.1880978 444.029102,79.7286575 445.902656,77.8724761 C447.77621,76.0162947 449.206027,73.8413036 450.192108,71.3475027 C451.178189,68.8537017 451.671229,66.1756996 451.671229,63.3134963 C451.671229,60.7346794 451.276797,58.5313496 450.487932,56.7035069 C449.699068,54.8756642 448.663683,53.3241233 447.381777,52.0488842 C446.099872,50.7736451 444.634837,49.7251151 442.986674,48.9032944 C441.33851,48.0814736 439.655129,47.3659228 437.93653,46.7566419 C436.217932,46.147361 434.534551,45.5947574 432.886387,45.098831 C431.238223,44.6029047 429.773189,44.0573858 428.491284,43.4622742 C427.209378,42.8671626 426.173993,42.1586964 425.385129,41.3368757 C424.596264,40.5150549 424.201831,39.4806943 424.201831,38.2337938 C424.201831,36.2784272 424.856871,34.7268863 426.16695,33.5791711 C427.477029,32.4314559 429.470321,31.8575983 432.146827,31.8575983 C433.696382,31.8575983 435.076896,32.0630535 436.288367,32.4739639 C437.499837,32.8848742 438.577483,33.3453773 439.521303,33.8554729 C440.465124,34.3655685 441.310336,34.8260716 442.05694,35.2369819 C442.803544,35.6478923 443.500844,35.8533475 444.14884,35.8533475 C444.881358,35.8533475 445.48005,35.6833156 445.944916,35.3432519 C446.409783,35.0031881 446.85352,34.4930925 447.276126,33.8129649 L447.276126,33.8129649 L450.826017,27.1392136 C449.727241,26.1190223 448.480553,25.205101 447.085953,24.3974495 C445.691353,23.5897981 444.191101,22.8955012 442.585198,22.314559 C440.979295,21.7336167 439.281827,21.2943677 437.492794,20.9968119 C435.703761,20.6992561 433.865425,20.5504782 431.977784,20.5504782 C428.596935,20.5504782 425.596432,21.0676585 422.976274,22.1020191 C420.356116,23.1363797 418.144477,24.5178888 416.341358,26.2465462 C414.538238,27.9752037 413.171812,29.9447396 412.242078,32.1551541 C411.312345,34.3655685 410.847478,36.6326603 410.847478,38.9564293 C410.847478,41.8469713 411.24191,44.2770103 412.030775,46.2465462 C412.81964,48.2160822 413.855025,49.8597237 415.13693,51.1774708 C416.418835,52.4952179 417.876826,53.5579171 419.510903,54.3655685 C421.14498,55.17322 422.821318,55.8533475 424.539916,56.4059511 C426.258515,56.9585547 427.934852,57.4615657 429.568929,57.9149841 C431.203006,58.3684024 432.660997,58.8926674 433.942903,59.487779 C435.224808,60.0828905 436.260193,60.8338647 437.049058,61.7407014 C437.837922,62.6475381 438.232355,63.8235919 438.232355,65.2688629 C438.232355,67.7626638 437.513924,69.5834219 436.077063,70.7311371 C434.640203,71.8788523 432.62578,72.4527099 430.033796,72.4527099 C428.117981,72.4527099 426.455731,72.1834927 425.047044,71.6450584 C423.638357,71.1066242 422.391669,70.5115126 421.306979,69.8597237 C420.22229,69.2079348 419.250296,68.6128232 418.390997,68.0743889 C417.531698,67.5359547 416.679442,67.2667375 415.83423,67.2667375 C415.186234,67.2667375 414.587542,67.4296847 414.038154,67.7555792 C413.488766,68.0814736 413.04503,68.4852993 412.706945,68.9670563 L412.706945,68.9670563 L408.480884,75.6833156 C409.692354,76.9018774 411.115128,78.0070847 412.749205,78.9989373 C414.383282,79.9907899 416.130054,80.848034 417.989521,81.5706695 C419.848988,82.293305 421.771846,82.8529933 423.758095,83.2497343 C425.744344,83.6464754 427.695375,83.8448459 429.61119,83.8448459 Z M473.000409,83.8448459 C475.254308,83.8448459 477.437773,83.5260361 479.550804,82.8884166 C481.663835,82.250797 483.565562,81.2943677 485.255987,80.0191286 L485.255987,80.0191286 L481.283489,73.770457 C481.029925,73.3737159 480.783405,73.0832448 480.543928,72.8990436 C480.304452,72.7148424 479.987497,72.6227418 479.593065,72.6227418 C479.311327,72.6227418 479.064807,72.6723344 478.853504,72.7715197 C478.642201,72.8707049 478.416811,72.9840595 478.177334,73.1115834 C477.937857,73.2391073 477.65612,73.3524619 477.332122,73.4516472 C477.008124,73.5508324 476.606648,73.6004251 476.127694,73.6004251 C475.197961,73.6004251 474.486574,73.267446 473.993533,72.6014878 C473.500493,71.9355296 473.253973,71.0924548 473.253973,70.0722635 L473.253973,70.0722635 L473.253973,48.1806589 L484.11495,48.1806589 L484.11495,39.1689692 L473.253973,39.1689692 L473.253973,26.2890542 L466.407754,26.2890542 C464.830024,26.2890542 463.872117,26.9691817 463.534032,28.3294368 L463.534032,28.3294368 L460.956135,39.0839532 L453.983134,40.4442083 L453.983134,45.5876727 C453.983134,46.4378321 454.22261,47.0825363 454.701564,47.5217853 C455.180518,47.9610344 455.758079,48.1806589 456.434249,48.1806589 L456.434249,48.1806589 L460.153183,48.1806589 L460.153183,70.9649309 C460.153183,72.9202976 460.43492,74.691463 460.998395,76.2784272 C461.56187,77.8653914 462.385952,79.2185618 463.470641,80.3379384 C464.55533,81.4573149 465.893583,82.3216436 467.485399,82.9309245 C469.077216,83.5402055 470.915552,83.8448459 473.000409,83.8448459 Z M510.177318,83.8448459 C513.50182,83.8448459 516.530497,83.3134963 519.26335,82.250797 C521.996203,81.1880978 524.341667,79.6719802 526.299742,77.7024442 C528.257817,75.7329083 529.779199,73.3382926 530.863888,70.5185972 C531.948577,67.6989019 532.490922,64.5320581 532.490922,61.0180659 C532.490922,57.5324123 531.948577,54.3939072 530.863888,51.6025505 C529.779199,48.8111938 528.257817,46.4378321 526.299742,44.4824655 C524.341667,42.5270988 521.996203,41.0251505 519.26335,39.9766206 C516.530497,38.9280907 513.50182,38.4038257 510.177318,38.4038257 C506.824643,38.4038257 503.774836,38.9280907 501.027896,39.9766206 C498.280956,41.0251505 495.914362,42.5270988 493.928113,44.4824655 C491.941864,46.4378321 490.406395,48.8111938 489.321706,51.6025505 C488.237017,54.3939072 487.694673,57.5324123 487.694673,61.0180659 C487.694673,64.5320581 488.237017,67.6989019 489.321706,70.5185972 C490.406395,73.3382926 491.941864,75.7329083 493.928113,77.7024442 C495.914362,79.6719802 498.280956,81.1880978 501.027896,82.250797 C503.774836,83.3134963 506.824643,83.8448459 510.177318,83.8448459 Z M510.177318,74.0680128 C507.078207,74.0680128 504.810221,72.9982288 503.37336,70.858661 C501.936499,68.7190932 501.218069,65.4672334 501.218069,61.1030818 C501.218069,56.7389302 501.936499,53.4941552 503.37336,51.3687566 C504.810221,49.2433581 507.078207,48.1806589 510.177318,48.1806589 C513.191909,48.1806589 515.410591,49.2433581 516.833365,51.3687566 C518.256139,53.4941552 518.967526,56.7389302 518.967526,61.1030818 C518.967526,65.4672334 518.256139,68.7190932 516.833365,70.858661 C515.410591,72.9982288 513.191909,74.0680128 510.177318,74.0680128 Z M552.805847,83.1647184 L552.805847,56.3846971 C553.594711,54.5710237 554.559662,53.1540914 555.700699,52.1339001 C556.841735,51.1137088 558.370161,50.6036132 560.285975,50.6036132 C560.62406,50.6036132 560.997362,50.6248672 561.405881,50.6673751 C561.8144,50.7098831 562.215876,50.7523911 562.610309,50.794899 C563.004741,50.837407 563.385087,50.8728303 563.751345,50.901169 C564.117604,50.9295076 564.413428,50.9436769 564.638818,50.9436769 C565.202293,50.9436769 565.646029,50.8303224 565.970027,50.6036132 C566.294025,50.376904 566.526459,49.9518243 566.667327,49.3283741 L566.667327,49.3283741 L567.51254,39.6365569 C566.272895,38.7013815 564.666992,38.2337938 562.69483,38.2337938 C560.412757,38.2337938 558.391291,38.9139214 556.630432,40.2741764 C554.869573,41.6344315 553.312974,43.5047821 551.960634,45.8852285 L551.960634,45.8852285 L551.284465,42.1870351 C551.17177,41.6202621 551.037944,41.1385051 550.882989,40.7417641 C550.728033,40.345023 550.502643,40.0262132 550.206819,39.7853348 C549.910995,39.5444563 549.544736,39.3673397 549.108043,39.2539851 C548.67135,39.1406305 548.129006,39.0839532 547.481009,39.0839532 L547.481009,39.0839532 L539.705057,39.0839532 L539.705057,83.1647184 L552.805847,83.1647184 Z M579.290821,34.6631243 C580.389597,34.6631243 581.424982,34.4576691 582.396976,34.0467588 C583.36897,33.6358484 584.221226,33.0832448 584.953743,32.3889479 C585.68626,31.6946511 586.263822,30.8869996 586.686428,29.9659936 C587.109034,29.0449876 587.320337,28.0602196 587.320337,27.0116897 C587.320337,25.9348211 587.109034,24.9287991 586.686428,23.9936238 C586.263822,23.0584485 585.68626,22.2366277 584.953743,21.5281615 C584.221226,20.8196954 583.36897,20.2670917 582.396976,19.8703507 C581.424982,19.4736096 580.389597,19.2752391 579.290821,19.2752391 C578.220219,19.2752391 577.220051,19.4736096 576.290318,19.8703507 C575.360584,20.2670917 574.536502,20.8196954 573.818072,21.5281615 C573.099641,22.2366277 572.536166,23.0584485 572.127647,23.9936238 C571.719128,24.9287991 571.514868,25.9348211 571.514868,27.0116897 C571.514868,28.0602196 571.719128,29.0449876 572.127647,29.9659936 C572.536166,30.8869996 573.099641,31.6946511 573.818072,32.3889479 C574.536502,33.0832448 575.360584,33.6358484 576.290318,34.0467588 C577.220051,34.4576691 578.220219,34.6631243 579.290821,34.6631243 Z M585.967998,83.1647184 L585.967998,39.0839532 L572.867208,39.0839532 L572.867208,83.1647184 L585.967998,83.1647184 Z M615.664779,83.8448459 C617.157987,83.8448459 618.728673,83.738576 620.376837,83.5260361 C622.025001,83.3134963 623.673165,82.9309245 625.321329,82.3783209 C626.969492,81.8257173 628.575396,81.0605739 630.139038,80.0828905 C631.702681,79.1052072 633.160672,77.8370528 634.513012,76.2784272 L634.513012,76.2784272 L630.709557,71.5600425 C630.174256,70.794899 629.385391,70.4123273 628.342962,70.4123273 C627.554098,70.4123273 626.80045,70.5965285 626.08202,70.9649309 C625.363589,71.3333333 624.574724,71.7442437 623.715425,72.1976621 C622.856126,72.6510804 621.877089,73.0619908 620.778313,73.4303932 C619.679537,73.7987956 618.369458,73.9829968 616.848076,73.9829968 C614.002528,73.9829968 611.678194,73.1540914 609.875075,71.4962806 C608.071955,69.8384697 606.959092,67.1675522 606.536486,63.4835282 L606.536486,63.4835282 L631.808333,63.4835282 C632.399981,63.4835282 632.885978,63.4126815 633.266324,63.2709883 C633.646669,63.1292951 633.949537,62.8742473 634.174927,62.5058448 C634.400317,62.1374424 634.555272,61.6415161 634.639794,61.0180659 C634.724315,60.3946157 634.766575,59.5869642 634.766575,58.5951116 C634.766575,55.4211831 634.280578,52.5802338 633.308584,50.0722635 C632.33659,47.5642933 630.984251,45.4459795 629.251565,43.717322 C627.51888,41.9886645 625.44811,40.6709175 623.039255,39.7640808 C620.630401,38.8572441 617.975025,38.4038257 615.07313,38.4038257 C611.720455,38.4038257 608.712908,38.984768 606.050489,40.1466525 C603.388071,41.308537 601.120085,42.8813319 599.246531,44.8650372 C597.372977,46.8487425 595.936116,49.1583422 594.935948,51.7938363 C593.93578,54.4293305 593.435697,57.2206872 593.435697,60.1679065 C593.435697,64.0786397 594.020302,67.507616 595.189512,70.4548353 C596.358722,73.4020546 597.950539,75.8675168 599.964961,77.8512221 C601.979384,79.8349274 604.331891,81.329791 607.022483,82.335813 C609.713076,83.3418349 612.593841,83.8448459 615.664779,83.8448459 Z M623.018125,55.8320935 L606.705529,55.8320935 C607.156309,53.1399221 608.086042,51.0782855 609.494729,49.6471838 C610.903416,48.2160822 612.847404,47.5005313 615.326694,47.5005313 C616.735381,47.5005313 617.932765,47.7414098 618.918846,48.2231668 C619.904927,48.7049238 620.700835,49.3354587 621.30657,50.1147715 C621.912306,50.8940843 622.348999,51.779667 622.616649,52.7715197 C622.8843,53.7633723 623.018125,54.7835636 623.018125,55.8320935 L623.018125,55.8320935 Z M654.574373,83.8448459 C657.56079,83.8448459 660.202078,83.4764435 662.498238,82.7396387 C664.794398,82.0028339 666.724299,80.9684733 668.287942,79.6365569 C669.851584,78.3046405 671.027838,76.7176762 671.816703,74.8756642 C672.605568,73.0336521 673,71.0216082 673,68.8395324 C673,67.0541977 672.711219,65.5239107 672.133657,64.2486716 C671.556096,62.9734325 670.788361,61.8894793 669.830454,60.9968119 C668.872547,60.1041445 667.787858,59.3531704 666.576387,58.7438895 C665.364916,58.1346086 664.125271,57.6032589 662.857453,57.1498406 C661.589635,56.6964222 660.34999,56.2855119 659.138519,55.9171095 C657.927048,55.548707 656.842359,55.1590507 655.884452,54.7481403 C654.926545,54.3372299 654.15881,53.8625576 653.581249,53.3241233 C653.003687,52.785689 652.714906,52.1055615 652.714906,51.2837407 C652.714906,50.1501948 653.158642,49.2646121 654.046115,48.6269926 C654.933588,47.989373 656.20845,47.6705632 657.870701,47.6705632 C659.025824,47.6705632 660.054166,47.8051718 660.955725,48.0743889 C661.857285,48.3436061 662.66728,48.6340772 663.385711,48.9458023 C664.104141,49.2575275 664.773267,49.5479986 665.39309,49.8172157 C666.012912,50.0864329 666.632734,50.2210414 667.252557,50.2210414 C667.844205,50.2210414 668.330202,50.1076869 668.710548,49.8809777 C669.090893,49.6542685 669.450109,49.2716968 669.788193,48.7332625 L669.788193,48.7332625 L672.746436,44.0998937 C671.929398,43.278073 670.985577,42.5200142 669.914975,41.8257173 C668.844373,41.1314205 667.661076,40.5292242 666.365084,40.0191286 C665.069092,39.5090329 663.681535,39.1122919 662.202414,38.8289054 C660.723292,38.545519 659.194867,38.4038257 657.617137,38.4038257 C654.715242,38.4038257 652.179605,38.7793128 650.010227,39.5302869 C647.840849,40.2812611 646.037729,41.2943677 644.600868,42.5696068 C643.164008,43.8448459 642.086362,45.3255402 641.367932,47.0116897 C640.649501,48.6978392 640.290286,50.4760893 640.290286,52.34644 C640.290286,54.3584839 640.58611,56.072972 641.177759,57.4899044 C641.769407,58.9068367 642.544185,60.1041445 643.502093,61.0818278 C644.46,62.0595112 645.551732,62.8671626 646.77729,63.5047821 C648.002848,64.1424017 649.249536,64.6879207 650.517354,65.141339 C651.785173,65.5947574 653.031861,65.9985831 654.257418,66.3528162 C655.482976,66.7070492 656.574709,67.089621 657.532616,67.5005313 C658.490523,67.9114417 659.265301,68.4002834 659.85695,68.9670563 C660.448598,69.5338293 660.744422,70.2564648 660.744422,71.1349628 C660.744422,71.6167198 660.645814,72.0843075 660.448598,72.5377258 C660.251382,72.9911442 659.941471,73.4020546 659.518865,73.770457 C659.096259,74.1388594 658.532784,74.4293305 657.82844,74.6418704 C657.124097,74.8544102 656.264798,74.9606801 655.250543,74.9606801 C653.813682,74.9606801 652.623341,74.7906482 651.679521,74.4505845 C650.735701,74.1105207 649.911619,73.7421183 649.207275,73.3453773 C648.502932,72.9486362 647.847892,72.5802338 647.242157,72.24017 C646.636421,71.9001063 645.953208,71.7300744 645.192517,71.7300744 C644.375479,71.7300744 643.706352,71.8930216 643.185138,72.218916 C642.663924,72.5448105 642.234274,72.9911442 641.896189,73.5579171 L641.896189,73.5579171 L638.853425,78.4038257 C639.698637,79.1689692 640.712892,79.88452 641.896189,80.5504782 C643.079486,81.2164364 644.368435,81.790294 645.763035,82.272051 C647.157636,82.753808 648.60154,83.1363797 650.094748,83.4197662 C651.587956,83.7031527 653.081165,83.8448459 654.574373,83.8448459 Z" id="COVID|Stories"></path>
        </g>
    </g>
</svg>